<svg width="1061" height="1061" viewBox="0 0 1061 1061" fill="none" xmlns="http://www.w3.org/2000/svg">
<circle cx="530.33" cy="530.33" r="530.33" fill="url(#paint0_radial_868_1769)"/>
<circle cx="530.33" cy="530.33" r="465.33" stroke="black" stroke-opacity="0.5" stroke-width="130"/>
<circle cx="530.33" cy="530.33" r="460.33" stroke="black" stroke-opacity="0.5" stroke-width="140"/>
<path d="M197.758 197.759C381.433 14.0836 679.229 14.0836 862.904 197.759C1046.58 381.434 1046.58 679.23 862.904 862.905C679.229 1046.58 381.433 1046.58 197.758 862.905C14.0826 679.23 14.0826 381.434 197.758 197.759Z" stroke="url(#paint1_linear_868_1769)" stroke-width="120"/>
<path d="M176.543 176.545C371.934 -18.846 688.725 -18.8458 884.116 176.545C1079.51 371.936 1079.51 688.727 884.116 884.118C688.725 1079.51 371.934 1079.51 176.543 884.118C-18.8478 688.727 -18.8479 371.936 176.543 176.545Z" stroke="url(#paint2_linear_868_1769)" stroke-width="60"/>
<mask id="path-6-outside-1_868_1769" maskUnits="userSpaceOnUse" x="288.33" y="270.333" width="500" height="520" fill="black">
<rect fill="white" x="288.33" y="270.333" width="500" height="520"/>
<path d="M305.095 775.333L304.395 768.333C330.295 749.433 340.795 731.933 340.795 682.233V378.433C340.795 328.733 330.295 311.233 304.395 292.333L305.095 285.333H557.795C662.095 285.333 733.495 349.733 733.495 442.133C733.495 509.333 695.695 563.233 634.795 587.733L698.495 685.033C721.595 720.733 743.295 747.333 771.995 768.333L771.295 775.333H609.595C596.295 748.733 582.295 722.833 556.395 680.133L508.795 601.733H466.795V682.233C466.795 731.933 476.595 749.433 499.695 768.333L498.995 775.333H305.095ZM466.795 499.533H546.595C582.295 499.533 606.095 475.733 606.095 443.533C606.095 411.333 582.295 387.533 546.595 387.533H466.795V499.533Z"/>
</mask>
<path d="M305.095 775.333L304.395 768.333C330.295 749.433 340.795 731.933 340.795 682.233V378.433C340.795 328.733 330.295 311.233 304.395 292.333L305.095 285.333H557.795C662.095 285.333 733.495 349.733 733.495 442.133C733.495 509.333 695.695 563.233 634.795 587.733L698.495 685.033C721.595 720.733 743.295 747.333 771.995 768.333L771.295 775.333H609.595C596.295 748.733 582.295 722.833 556.395 680.133L508.795 601.733H466.795V682.233C466.795 731.933 476.595 749.433 499.695 768.333L498.995 775.333H305.095ZM466.795 499.533H546.595C582.295 499.533 606.095 475.733 606.095 443.533C606.095 411.333 582.295 387.533 546.595 387.533H466.795V499.533Z" fill="#D8DAE2"/>
<path d="M305.095 775.333L290.169 776.826L291.52 790.333H305.095V775.333ZM304.395 768.333L295.552 756.216L288.614 761.279L289.469 769.826L304.395 768.333ZM304.395 292.333L289.469 290.84L288.614 299.387L295.552 304.45L304.395 292.333ZM305.095 285.333V270.333H291.52L290.169 283.84L305.095 285.333ZM634.795 587.733L629.196 573.817L612.225 580.644L622.245 595.949L634.795 587.733ZM698.495 685.033L711.088 676.884L711.066 676.851L711.044 676.817L698.495 685.033ZM771.995 768.333L786.92 769.826L787.773 761.292L780.852 756.228L771.995 768.333ZM771.295 775.333V790.333H784.869L786.22 776.826L771.295 775.333ZM609.595 775.333L596.178 782.041L600.324 790.333H609.595V775.333ZM556.395 680.133L569.22 672.354L569.216 672.348L556.395 680.133ZM508.795 601.733L521.616 593.948L517.236 586.733H508.795V601.733ZM466.795 601.733V586.733H451.795V601.733H466.795ZM499.695 768.333L514.62 769.826L515.421 761.819L509.193 756.724L499.695 768.333ZM498.995 775.333V790.333H512.569L513.92 776.826L498.995 775.333ZM466.795 499.533H451.795V514.533H466.795V499.533ZM466.795 387.533V372.533H451.795V387.533H466.795ZM305.095 775.333L320.02 773.84L319.32 766.84L304.395 768.333L289.469 769.826L290.169 776.826L305.095 775.333ZM304.395 768.333L313.237 780.45C327.236 770.234 338.611 759.279 345.972 743.019C353.139 727.188 355.795 707.867 355.795 682.233H340.795H325.795C325.795 706.299 323.2 720.578 318.642 730.647C314.278 740.287 307.453 747.532 295.552 756.216L304.395 768.333ZM340.795 682.233H355.795V378.433H340.795H325.795V682.233H340.795ZM340.795 378.433H355.795C355.795 352.799 353.139 333.478 345.972 317.647C338.611 301.387 327.236 290.432 313.237 280.216L304.395 292.333L295.552 304.45C307.453 313.134 314.278 320.379 318.642 330.019C323.2 340.088 325.795 354.367 325.795 378.433H340.795ZM304.395 292.333L319.32 293.826L320.02 286.826L305.095 285.333L290.169 283.84L289.469 290.84L304.395 292.333ZM305.095 285.333V300.333H557.795V285.333V270.333H305.095V285.333ZM557.795 285.333V300.333C606.879 300.333 647.049 315.459 674.752 340.259C702.331 364.947 718.495 400.022 718.495 442.133H733.495H748.495C748.495 391.844 728.958 348.519 694.762 317.907C660.69 287.407 613.011 270.333 557.795 270.333V285.333ZM733.495 442.133H718.495C718.495 503.069 684.548 551.549 629.196 573.817L634.795 587.733L640.393 601.649C706.841 574.917 748.495 515.597 748.495 442.133H733.495ZM634.795 587.733L622.245 595.949L685.945 693.249L698.495 685.033L711.044 676.817L647.344 579.517L634.795 587.733ZM698.495 685.033L685.901 693.182C709.466 729.601 732.339 757.904 763.137 780.438L771.995 768.333L780.852 756.228C754.25 736.762 733.723 711.865 711.088 676.884L698.495 685.033ZM771.995 768.333L757.069 766.84L756.369 773.84L771.295 775.333L786.22 776.826L786.92 769.826L771.995 768.333ZM771.295 775.333V760.333H609.595V775.333V790.333H771.295V775.333ZM609.595 775.333L623.011 768.625C609.51 741.622 595.308 715.365 569.22 672.354L556.395 680.133L543.569 687.912C569.281 730.302 583.079 755.844 596.178 782.041L609.595 775.333ZM556.395 680.133L569.216 672.348L521.616 593.948L508.795 601.733L495.973 609.518L543.573 687.918L556.395 680.133ZM508.795 601.733V586.733H466.795V601.733V616.733H508.795V601.733ZM466.795 601.733H451.795V682.233H466.795H481.795V601.733H466.795ZM466.795 682.233H451.795C451.795 707.818 454.272 726.92 460.714 742.549C467.348 758.646 477.591 769.629 490.196 779.942L499.695 768.333L509.193 756.724C498.698 748.137 492.491 740.921 488.45 731.117C484.217 720.846 481.795 706.348 481.795 682.233H466.795ZM499.695 768.333L484.769 766.84L484.069 773.84L498.995 775.333L513.92 776.826L514.62 769.826L499.695 768.333ZM498.995 775.333V760.333H305.095V775.333V790.333H498.995V775.333ZM466.795 499.533V514.533H546.595V499.533V484.533H466.795V499.533ZM546.595 499.533V514.533C567.838 514.533 586.58 507.4 600.109 494.44C613.662 481.456 621.095 463.456 621.095 443.533H606.095H591.095C591.095 455.81 586.627 465.81 579.355 472.776C572.059 479.766 561.051 484.533 546.595 484.533V499.533ZM606.095 443.533H621.095C621.095 423.61 613.662 405.61 600.109 392.626C586.58 379.666 567.838 372.533 546.595 372.533V387.533V402.533C561.051 402.533 572.059 407.3 579.355 414.29C586.627 421.256 591.095 431.256 591.095 443.533H606.095ZM546.595 387.533V372.533H466.795V387.533V402.533H546.595V387.533ZM466.795 387.533H451.795V499.533H466.795H481.795V387.533H466.795Z" fill="black" fill-opacity="0.5" mask="url(#path-6-outside-1_868_1769)"/>
<defs>
<radialGradient id="paint0_radial_868_1769" cx="0" cy="0" r="1" gradientUnits="userSpaceOnUse" gradientTransform="translate(214.346 147.929) rotate(-133.193) scale(744.677 910.719)">
<stop stop-color="#AEB5DF"/>
<stop offset="1" stop-color="#161726"/>
</radialGradient>
<linearGradient id="paint1_linear_868_1769" x1="155.331" y1="155.332" x2="905.33" y2="905.332" gradientUnits="userSpaceOnUse">
<stop stop-color="#49391D"/>
<stop offset="0.5" stop-color="#7C6131"/>
<stop offset="1" stop-color="#AF8845"/>
</linearGradient>
<linearGradient id="paint2_linear_868_1769" x1="905.329" y1="905.332" x2="155.33" y2="155.332" gradientUnits="userSpaceOnUse">
<stop stop-color="#49391D"/>
<stop offset="0.5" stop-color="#7C6131"/>
<stop offset="1" stop-color="#AF8845"/>
</linearGradient>
</defs>
</svg>
